<?xml version="1.0" encoding="iso-8859-1"?>
<!-- Uploaded to: SVG Repo, www.svgrepo.com, Generator: SVG Repo Mixer Tools -->
<svg version="1.1" id="Layer_1" xmlns="http://www.w3.org/2000/svg" xmlns:xlink="http://www.w3.org/1999/xlink" 
	 viewBox="0 0 390.251 390.251" xml:space="preserve">
<path style="fill:#FFFFFF;" d="M231.434,21.679H32.517c-5.947,0-10.861,4.848-10.861,10.861v325.172
	c0,5.947,4.848,10.861,10.861,10.861h198.917c5.947,0,10.861-4.848,10.861-10.861V32.54
	C242.23,26.592,237.382,21.679,231.434,21.679z"/>
<path style="fill:#FFC10D;" d="M363.119,85.097l-99.168-41.18V312.2L368.032,97.574C369.648,92.725,368.549,87.295,363.119,85.097z"
	/>
<path style="fill:#194F82;" d="M371.782,65.057L260.655,18.964c-5.43-11.378-16.291-18.941-29.285-18.941H32.517
	C14.61,0.022,0,14.633,0,32.54v325.172c0,17.907,14.61,32.517,32.517,32.517h198.917c16.808,0,30.319-12.477,32.517-28.703
	c1.099-1.616,2.198-2.715,2.715-4.331l120.889-250.376C394.537,89.428,387.491,72.103,371.782,65.057z M263.952,43.917l99.168,41.18
	c5.43,2.715,6.529,7.564,4.848,12.477L263.887,312.2V43.917H263.952z M242.23,357.711c0,5.947-4.848,10.861-10.861,10.861H32.517
	c-5.947,0-10.861-4.848-10.861-10.861V32.54c0-5.947,4.848-10.861,10.861-10.861h198.917c5.947,0,10.861,4.848,10.861,10.861
	v325.172H242.23z"/>
<rect x="43.378" y="43.4" style="fill:#56ACE0;" width="177.196" height="303.515"/>
<path style="fill:#FFFFFF;" d="M180.493,172.37c0-11.895-9.762-21.139-21.139-21.139c-7.046,0-14.093,3.814-17.907,9.762
	c-4.331,6.529-14.093,6.529-18.424,0c-3.814-5.947-10.861-9.762-17.907-9.762c-11.895,0-21.139,9.762-21.139,21.139
	c0,20.622,30.901,49.842,48.226,63.418C152.824,218.398,180.493,189.695,180.493,172.37z"/>
<g>
	<path style="fill:#194F82;" d="M158.772,129.574c-9.762,0-19.523,3.232-27.087,9.762c-7.564-5.947-16.808-9.762-27.087-9.762
		c-23.855,0-42.796,19.523-42.796,42.796c0,39.046,56.889,81.325,63.418,86.174c3.232,2.715,9.244,2.715,12.994,0
		c6.529-4.848,63.418-49.842,63.418-85.657C202.149,149.033,182.626,129.574,158.772,129.574z M83.459,172.37
		c0-11.895,9.762-21.139,21.139-21.139c7.046,0,14.093,3.814,17.907,9.762c4.331,6.529,14.093,6.529,18.424,0
		c3.814-5.947,10.861-9.762,17.907-9.762c11.895,0,21.139,9.762,21.139,21.139c0,17.325-27.669,46.093-48.226,63.418
		C114.36,222.212,83.459,192.927,83.459,172.37z"/>
	<path style="fill:#194F82;" d="M68.848,75.336V56.394c0-5.947-4.848-10.861-10.861-10.861s-10.861,4.848-10.861,10.861v18.941
		c0,5.947,4.848,10.861,10.861,10.861S68.848,81.283,68.848,75.336z"/>
	<path style="fill:#194F82;" d="M205.964,304.055c-5.947,0-10.861,4.848-10.861,10.861v18.941c0,5.947,4.848,10.861,10.861,10.861
		c5.947,0,10.861-4.848,10.861-10.861v-18.941C216.76,308.386,211.911,304.055,205.964,304.055z"/>
</g>
</svg>